<svg id="Layer_1" data-name="Layer 1" xmlns="http://www.w3.org/2000/svg" xmlns:xlink="http://www.w3.org/1999/xlink" viewBox="0 0 111.81 111.81"><defs><style>.cls-1,.cls-7,.cls-8{fill:none;}.cls-2{clip-path:url(#clip-path);}.cls-3{fill:#fdeceb;}.cls-4{fill:#242650;}.cls-5{clip-path:url(#clip-path-2);}.cls-6{fill:#f4cfce;}.cls-7{stroke:#fce2e1;stroke-miterlimit:10;}.cls-8{stroke:#242650;stroke-linecap:round;stroke-linejoin:round;stroke-width:1.2px;}.cls-9{fill:#fff;}</style><clipPath id="clip-path" transform="translate(0 0)"><rect class="cls-1" width="111.81" height="111.81"/></clipPath><clipPath id="clip-path-2" transform="translate(0 0)"><path class="cls-1" d="M9.3,55.91A46.61,46.61,0,1,0,55.9,9.3,46.6,46.6,0,0,0,9.3,55.91"/></clipPath></defs><title>bon-takeout_logo</title><g class="cls-2"><path class="cls-3" d="M.5,55.91A55.41,55.41,0,1,0,55.9.5,55.4,55.4,0,0,0,.5,55.91" transform="translate(0 0)"/><path class="cls-4" d="M29.2,74.71a.6.6,0,0,1-.3-1.11L54.48,58.42a.6.6,0,0,1,.61,1L29.51,74.63a.68.68,0,0,1-.31.08" transform="translate(0 0)"/><path class="cls-4" d="M51.43,53.25,25.6,67.64A8.23,8.23,0,0,0,22.24,78.5L9.45,86.09c.22.33.43.67.66,1l13.24-7.85a.61.61,0,0,0,.27-.37.59.59,0,0,0-.06-.45,7,7,0,0,1,2.62-9.73L52,54.29a.59.59,0,0,0,.23-.81.58.58,0,0,0-.81-.23" transform="translate(0 0)"/><path class="cls-4" d="M58.39,34.09,103.71,29c-.22-.38-.43-.76-.65-1.13L58.25,32.9a1.7,1.7,0,0,0,.2,3.39h.16l46.63-4.45c-.19-.39-.39-.77-.59-1.15l-46.16,4.4a.48.48,0,0,1-.54-.45.5.5,0,0,1,.44-.55" transform="translate(0 0)"/></g><g class="cls-5"><path class="cls-6" d="M47.52,106.92a.63.63,0,0,1-.43-.17,8.55,8.55,0,0,1,0-12.06,7.32,7.32,0,0,0,0-10.35,8.53,8.53,0,0,1,0-12,7.33,7.33,0,0,0,0-10.36,8.53,8.53,0,0,1,0-12,7.32,7.32,0,0,0,0-10.35,8.55,8.55,0,0,1,0-12.06,7.3,7.3,0,0,0,0-10.35,8.53,8.53,0,0,1,0-12,.6.6,0,1,1,.85.84,7.33,7.33,0,0,0,0,10.36,8.53,8.53,0,0,1,0,12.05,7.33,7.33,0,0,0,0,10.36,8.53,8.53,0,0,1,0,12,7.32,7.32,0,0,0,0,10.35,8.55,8.55,0,0,1,0,12.06,7.32,7.32,0,0,0,0,10.35,8.53,8.53,0,0,1,0,12.05,7.33,7.33,0,0,0,0,10.36.61.61,0,0,1,0,.85.63.63,0,0,1-.42.17" transform="translate(0 0)"/><path class="cls-6" d="M51,106.92a.63.63,0,0,1-.42-.17,8.55,8.55,0,0,1,0-12.06,7.33,7.33,0,0,0,0-10.35,8.53,8.53,0,0,1,0-12,7.35,7.35,0,0,0,0-10.36,8.53,8.53,0,0,1,0-12,7.33,7.33,0,0,0,0-10.35,8.55,8.55,0,0,1,0-12.06,7.33,7.33,0,0,0,0-10.35,8.53,8.53,0,0,1,0-12,.6.6,0,1,1,.85.84,7.33,7.33,0,0,0,0,10.36,8.53,8.53,0,0,1,0,12.05,7.33,7.33,0,0,0,0,10.36,8.53,8.53,0,0,1,0,12,7.32,7.32,0,0,0,0,10.35,8.55,8.55,0,0,1,0,12.06,7.32,7.32,0,0,0,0,10.35,8.53,8.53,0,0,1,0,12.05,7.33,7.33,0,0,0,0,10.36.61.61,0,0,1,0,.85.63.63,0,0,1-.43.17" transform="translate(0 0)"/><path class="cls-6" d="M54.53,106.92a.63.63,0,0,1-.42-.17,8.55,8.55,0,0,1,0-12.06,7.33,7.33,0,0,0,0-10.35,8.53,8.53,0,0,1,0-12,7.35,7.35,0,0,0,0-10.36,8.53,8.53,0,0,1,0-12,7.33,7.33,0,0,0,0-10.35,8.55,8.55,0,0,1,0-12.06,7.33,7.33,0,0,0,0-10.35,8.53,8.53,0,0,1,0-12,.6.6,0,0,1,.85.84,7.33,7.33,0,0,0,0,10.36,8.53,8.53,0,0,1,0,12.05,7.33,7.33,0,0,0,0,10.36,8.53,8.53,0,0,1,0,12,7.32,7.32,0,0,0,0,10.35,8.55,8.55,0,0,1,0,12.06,7.32,7.32,0,0,0,0,10.35,8.53,8.53,0,0,1,0,12.05,7.33,7.33,0,0,0,0,10.36.61.61,0,0,1,0,.85.63.63,0,0,1-.43.17" transform="translate(0 0)"/><path class="cls-6" d="M58,106.92a.61.61,0,0,1-.42-.17,8.53,8.53,0,0,1,0-12.06,7.33,7.33,0,0,0,0-10.35,8.52,8.52,0,0,1,0-12,7.35,7.35,0,0,0,0-10.36,8.52,8.52,0,0,1,0-12,7.33,7.33,0,0,0,0-10.35,8.53,8.53,0,0,1,0-12.06,7.33,7.33,0,0,0,0-10.35,8.52,8.52,0,0,1,0-12,.59.59,0,0,1,.84.84,7.35,7.35,0,0,0,0,10.36,8.52,8.52,0,0,1,0,12.05,7.35,7.35,0,0,0,0,10.36,8.52,8.52,0,0,1,0,12,7.33,7.33,0,0,0,0,10.35,8.53,8.53,0,0,1,0,12.06,7.33,7.33,0,0,0,0,10.35,8.52,8.52,0,0,1,0,12.05,7.35,7.35,0,0,0,0,10.36.59.59,0,0,1,0,.85.61.61,0,0,1-.42.17" transform="translate(0 0)"/><path class="cls-6" d="M61.55,107.06a.61.61,0,0,1-.43-.18,8.53,8.53,0,0,1,0-12,7.32,7.32,0,0,0,0-10.35,8.53,8.53,0,0,1,0-12,7.33,7.33,0,0,0,0-10.36,8.53,8.53,0,0,1,0-12,7.33,7.33,0,0,0,0-10.36,8.53,8.53,0,0,1,0-12,7.3,7.3,0,0,0,0-10.35,8.53,8.53,0,0,1,0-12,.59.59,0,0,1,.85,0,.58.58,0,0,1,0,.84,7.35,7.35,0,0,0,0,10.36,8.52,8.52,0,0,1,0,12.05,7.35,7.35,0,0,0,0,10.36,8.52,8.52,0,0,1,0,12,7.33,7.33,0,0,0,0,10.35,8.52,8.52,0,0,1,0,12,7.35,7.35,0,0,0,0,10.36,8.52,8.52,0,0,1,0,12.05A7.34,7.34,0,0,0,62,106a.6.6,0,0,1-.42,1" transform="translate(0 0)"/><path class="cls-6" d="M66,107.06a.59.59,0,0,1-.42-.18,8.53,8.53,0,0,1,0-12,7.33,7.33,0,0,0,0-10.35,8.53,8.53,0,0,1,0-12,7.35,7.35,0,0,0,0-10.36,8.53,8.53,0,0,1,0-12,7.35,7.35,0,0,0,0-10.36,8.53,8.53,0,0,1,0-12,7.33,7.33,0,0,0,0-10.35,8.53,8.53,0,0,1,0-12,.6.6,0,1,1,.85.84,7.33,7.33,0,0,0,0,10.36,8.53,8.53,0,0,1,0,12.05,7.33,7.33,0,0,0,0,10.36,8.53,8.53,0,0,1,0,12,7.32,7.32,0,0,0,0,10.35,8.53,8.53,0,0,1,0,12,7.33,7.33,0,0,0,0,10.36,8.53,8.53,0,0,1,0,12.05,7.32,7.32,0,0,0,0,10.36.6.6,0,0,1-.43,1" transform="translate(0 0)"/><path class="cls-6" d="M71.18,107.06a.6.6,0,0,1-.43-.18,8.53,8.53,0,0,1,0-12,7.32,7.32,0,0,0,0-10.35,8.53,8.53,0,0,1,0-12,7.33,7.33,0,0,0,0-10.36,8.53,8.53,0,0,1,0-12,7.33,7.33,0,0,0,0-10.36,8.53,8.53,0,0,1,0-12,7.3,7.3,0,0,0,0-10.35,8.53,8.53,0,0,1,0-12,.6.6,0,1,1,.85.84,7.35,7.35,0,0,0,0,10.36,8.53,8.53,0,0,1,0,12.05,7.35,7.35,0,0,0,0,10.36,8.53,8.53,0,0,1,0,12,7.33,7.33,0,0,0,0,10.35,8.53,8.53,0,0,1,0,12,7.35,7.35,0,0,0,0,10.36,8.53,8.53,0,0,1,0,12.05,7.34,7.34,0,0,0,0,10.36.6.6,0,0,1-.42,1" transform="translate(0 0)"/><path class="cls-6" d="M79,106.92a.61.61,0,0,1-.42-.17,8.53,8.53,0,0,1,0-12.06,7.33,7.33,0,0,0,0-10.35,8.52,8.52,0,0,1,0-12,7.35,7.35,0,0,0,0-10.36,8.52,8.52,0,0,1,0-12,7.33,7.33,0,0,0,0-10.35,8.53,8.53,0,0,1,0-12.06,7.33,7.33,0,0,0,0-10.35,8.52,8.52,0,0,1,0-12,.59.59,0,0,1,.84.84,7.35,7.35,0,0,0,0,10.36,8.52,8.52,0,0,1,0,12.05,7.35,7.35,0,0,0,0,10.36,8.52,8.52,0,0,1,0,12,7.33,7.33,0,0,0,0,10.35,8.53,8.53,0,0,1,0,12.06,7.33,7.33,0,0,0,0,10.35,8.52,8.52,0,0,1,0,12.05,7.35,7.35,0,0,0,0,10.36.59.59,0,0,1,0,.85.61.61,0,0,1-.42.17" transform="translate(0 0)"/><path class="cls-6" d="M44,107.2a.6.6,0,0,1-.43-.18,8.53,8.53,0,0,1,0-12,7.3,7.3,0,0,0,0-10.35,8.53,8.53,0,0,1,0-12.05,7.33,7.33,0,0,0,0-10.36,8.53,8.53,0,0,1,0-12.05,7.33,7.33,0,0,0,0-10.36,8.53,8.53,0,0,1,0-12,7.3,7.3,0,0,0,0-10.35,8.53,8.53,0,0,1,0-12,.6.6,0,0,1,.85.84,7.35,7.35,0,0,0,0,10.36,8.53,8.53,0,0,1,0,12.05,7.35,7.35,0,0,0,0,10.36,8.53,8.53,0,0,1,0,12,7.33,7.33,0,0,0,0,10.35,8.53,8.53,0,0,1,0,12,7.35,7.35,0,0,0,0,10.36,8.53,8.53,0,0,1,0,12,7.35,7.35,0,0,0,0,10.36.6.6,0,0,1-.42,1" transform="translate(0 0)"/><path class="cls-6" d="M40.5,107.2a.61.61,0,0,1-.43-.18,8.53,8.53,0,0,1,0-12,7.3,7.3,0,0,0,0-10.35,8.53,8.53,0,0,1,0-12.05,7.33,7.33,0,0,0,0-10.36,8.53,8.53,0,0,1,0-12.05,7.33,7.33,0,0,0,0-10.36,8.53,8.53,0,0,1,0-12,7.3,7.3,0,0,0,0-10.35,8.53,8.53,0,0,1,0-12,.59.59,0,0,1,.85,0,.58.58,0,0,1,0,.84,7.35,7.35,0,0,0,0,10.36,8.52,8.52,0,0,1,0,12.05,7.35,7.35,0,0,0,0,10.36,8.52,8.52,0,0,1,0,12,7.33,7.33,0,0,0,0,10.35,8.52,8.52,0,0,1,0,12,7.35,7.35,0,0,0,0,10.36,8.52,8.52,0,0,1,0,12,7.35,7.35,0,0,0,0,10.36.6.6,0,0,1-.42,1" transform="translate(0 0)"/><path class="cls-6" d="M37,107.2a.58.58,0,0,1-.42-.18,8.52,8.52,0,0,1,0-12,7.33,7.33,0,0,0,0-10.35,8.52,8.52,0,0,1,0-12.05,7.35,7.35,0,0,0,0-10.36,8.52,8.52,0,0,1,0-12.05,7.35,7.35,0,0,0,0-10.36,8.52,8.52,0,0,1,0-12,7.33,7.33,0,0,0,0-10.35,8.52,8.52,0,0,1,0-12,.59.59,0,0,1,.84.84,7.35,7.35,0,0,0,0,10.36,8.52,8.52,0,0,1,0,12.05,7.35,7.35,0,0,0,0,10.36,8.52,8.52,0,0,1,0,12,7.33,7.33,0,0,0,0,10.35,8.52,8.52,0,0,1,0,12,7.35,7.35,0,0,0,0,10.36,8.52,8.52,0,0,1,0,12,7.35,7.35,0,0,0,0,10.36.6.6,0,0,1-.42,1" transform="translate(0 0)"/></g><g class="cls-2"><path class="cls-7" d="M9.3,55.91A46.61,46.61,0,1,0,55.9,9.3,46.61,46.61,0,0,0,9.3,55.91Z" transform="translate(0 0)"/><path class="cls-8" d="M9.3,55.91A46.61,46.61,0,1,0,55.9,9.3,46.61,46.61,0,0,0,9.3,55.91Z" transform="translate(0 0)"/><path class="cls-4" d="M32.23,79.81a.6.6,0,0,1-.31-1.11L57.5,63.52a.61.61,0,0,1,.62,1L32.53,79.73a.54.54,0,0,1-.3.08" transform="translate(0 0)"/><path class="cls-9" d="M51,42.26a1.1,1.1,0,0,0,.79,1.34l59.4,15.6c.06-1.09.1-2.19.1-3.29v-.09l-59-14.36a1.1,1.1,0,0,0-1.33.8" transform="translate(0 0)"/><path class="cls-4" d="M50.44,42.11a1.71,1.71,0,0,0,1.22,2.07l59.5,15.63c0-.4.06-.81.08-1.22L52,43a.52.52,0,0,1-.36-.61.51.51,0,0,1,.49-.38h.12l59.09,14.4c0-.18,0-.36,0-.53s0-.47,0-.71L52.49,40.88a1.7,1.7,0,0,0-2.05,1.23" transform="translate(0 0)"/><path class="cls-4" d="M60.5,68.6l-25,15.76A7,7,0,0,1,25.68,82a.59.59,0,0,0-.82-.21l-13,7.71c.24.32.49.64.74,1L25,83.12a8.25,8.25,0,0,0,11.14,2.26l25-15.76a.6.6,0,0,0-.64-1" transform="translate(0 0)"/><path class="cls-6" d="M55.91,111.81a55.91,55.91,0,1,1,55.9-55.9,56,56,0,0,1-55.9,55.9M55.91,1a54.91,54.91,0,1,0,54.9,54.91A55,55,0,0,0,55.91,1" transform="translate(0 0)"/></g></svg>