<?xml version="1.0" encoding="iso-8859-1"?>
<!-- Generator: Adobe Illustrator 19.0.0, SVG Export Plug-In . SVG Version: 6.00 Build 0)  -->
<svg version="1.1" id="Capa_1" xmlns="http://www.w3.org/2000/svg" xmlns:xlink="http://www.w3.org/1999/xlink" x="0px" y="0px"
	 viewBox="0 0 480 480" style="enable-background:new 0 0 480 480;" xml:space="preserve" fill="#141412">
<g>
	<g>
		<g>
			<path d="M424,0H56c-4.418,0-8,3.582-8,8v464c0,4.418,3.582,8,8,8h368c4.418,0,8-3.582,8-8V8C432,3.582,428.418,0,424,0z M416,464
				H64V16h352V464z"/>
			<path d="M232,112h128c4.418,0,8-3.582,8-8s-3.582-8-8-8H232c-4.418,0-8,3.582-8,8S227.582,112,232,112z"/>
			<path d="M138.344,125.656c3.124,3.123,8.188,3.123,11.312,0L194.912,80.4c3.069-3.178,2.981-8.243-0.197-11.312
				c-3.1-2.994-8.015-2.994-11.115,0l-39.6,39.6L127.032,91.72c-3.178-3.069-8.243-2.981-11.312,0.197
				c-2.994,3.1-2.994,8.015,0,11.115L138.344,125.656z"/>
			<path d="M232,184h128c4.418,0,8-3.582,8-8s-3.582-8-8-8H232c-4.418,0-8,3.582-8,8S227.582,184,232,184z"/>
			<path d="M138.344,205.656c3.124,3.123,8.188,3.123,11.312,0l45.256-45.256c3.069-3.178,2.981-8.243-0.197-11.312
				c-3.1-2.994-8.015-2.994-11.115,0l-39.6,39.6l-16.968-16.968c-3.178-3.069-8.243-2.981-11.312,0.197
				c-2.994,3.1-2.994,8.015,0,11.115L138.344,205.656z"/>
			<path d="M232,264h128c4.418,0,8-3.582,8-8s-3.582-8-8-8H232c-4.418,0-8,3.582-8,8S227.582,264,232,264z"/>
			<path d="M115.72,263.032l22.624,22.624c3.124,3.123,8.188,3.123,11.312,0l45.256-45.256c3.178-3.069,3.266-8.134,0.197-11.312
				c-3.069-3.178-8.134-3.266-11.312-0.197c-0.067,0.064-0.132,0.13-0.197,0.197l-39.6,39.6l-16.968-16.968
				c-3.069-3.178-8.134-3.266-11.312-0.196c-3.178,3.07-3.266,8.134-0.196,11.312C115.588,262.902,115.653,262.968,115.72,263.032z"
				/>
			<path d="M360,408h-96c-4.418,0-8,3.582-8,8s3.582,8,8,8h96c4.418,0,8-3.582,8-8S364.418,408,360,408z"/>
		</g>
	</g>
</g>
</svg>
