<svg id="Capa_1" fill="#141412" enable-background="new 0 0 512 512" height="512" viewBox="0 0 512 512" width="512" xmlns="http://www.w3.org/2000/svg"><g><path d="m121 361c8.284 0 15-6.716 15-15v-75h15c24.813 0 45-20.187 45-45v-22.918c0-46.773-26.419-89.562-68.292-110.498-4.65-2.325-10.171-2.077-14.594.657-4.422 2.732-7.114 7.56-7.114 12.759v240c0 8.284 6.716 15 15 15zm15-226.639c18.923 17.407 30 42.057 30 68.721v22.918c0 8.271-6.729 15-15 15h-15z"/><path d="m256 238.626v107.374c0 8.284 6.716 15 15 15s15-6.716 15-15v-107.374c29.066-9.305 45-41.474 45-72.626 0-44.903-29.309-75-60-75-30.973 0-60 30.505-60 75 0 31.097 15.917 63.316 45 72.626zm15-117.626c16.262 0 30 20.607 30 45s-13.738 45-30 45-30-20.607-30-45 13.738-45 30-45z"/><path d="m121 512h360c8.284 0 15-6.716 15-15v-91c0-8.284-6.716-15-15-15h-75v-376c0-8.284-6.716-15-15-15h-360c-8.284 0-15 6.716-15 15v391c0 58.448 47.103 106 105 106zm345-91v59.473c-29.409-6.074-52.617-29.644-58.533-59.473zm-420-391h330v376c0 29.78 12.233 56.726 31.886 76h-286.886c-41.355 0-75-34.094-75-76z"/><path d="m121 421h180c8.284 0 15-6.716 15-15s-6.716-15-15-15h-180c-8.284 0-15 6.716-15 15s6.716 15 15 15z"/></g></svg>